<svg width="1024" height="1024" viewBox="0 0 1024 1024" fill="none" xmlns="http://www.w3.org/2000/svg">
  <defs>
    <linearGradient id="bg" x1="110" y1="90" x2="930" y2="920" gradientUnits="userSpaceOnUse">
      <stop offset="0" stop-color="#0A1428"/>
      <stop offset="1" stop-color="#0A0F1D"/>
    </linearGradient>
    <linearGradient id="chip" x1="280" y1="250" x2="760" y2="760" gradientUnits="userSpaceOnUse">
      <stop offset="0" stop-color="#31F2C7"/>
      <stop offset="1" stop-color="#4E89FF"/>
    </linearGradient>
    <linearGradient id="inner" x1="380" y1="360" x2="640" y2="660" gradientUnits="userSpaceOnUse">
      <stop offset="0" stop-color="#D8FFFB"/>
      <stop offset="1" stop-color="#7CC4FF"/>
    </linearGradient>
    <filter id="glow" x="170" y="170" width="684" height="684" filterUnits="userSpaceOnUse" color-interpolation-filters="sRGB">
      <feGaussianBlur stdDeviation="8" result="b"/>
      <feBlend mode="screen" in="SourceGraphic" in2="b"/>
    </filter>
  </defs>

  <rect x="64" y="64" width="896" height="896" rx="220" fill="url(#bg)"/>

  <g filter="url(#glow)">
    <rect x="252" y="252" width="520" height="520" rx="74" stroke="url(#chip)" stroke-width="24"/>
    <rect x="330" y="330" width="364" height="364" rx="50" stroke="url(#chip)" stroke-opacity="0.7" stroke-width="12"/>
    <path d="M392 354H474V472H550V354H632V670H550V552H474V670H392V354Z" fill="url(#inner)"/>
  </g>

  <g stroke="#7FE7FF" stroke-opacity="0.9" stroke-width="10" stroke-linecap="round">
    <path d="M198 352H252"/><path d="M198 432H252"/><path d="M198 512H252"/><path d="M198 592H252"/><path d="M198 672H252"/>
    <path d="M772 352H826"/><path d="M772 432H826"/><path d="M772 512H826"/><path d="M772 592H826"/><path d="M772 672H826"/>
    <path d="M352 198V252"/><path d="M432 198V252"/><path d="M512 198V252"/><path d="M592 198V252"/><path d="M672 198V252"/>
    <path d="M352 772V826"/><path d="M432 772V826"/><path d="M512 772V826"/><path d="M592 772V826"/><path d="M672 772V826"/>
  </g>
</svg>
